<svg viewBox="0 0 24 24" fill="none" xmlns="http://www.w3.org/2000/svg">
<path d="M12.0021 14.5945H17.4206L20.7143 18.1291L20.7363 8.80938C20.7431 5.60293 18.1456 3 14.9391 3H10.067C6.86531 3 4.26978 5.59554 4.26978 8.79726C4.26978 11.3987 5.98322 13.5999 8.3431 14.3339" stroke="#A9AEAB" stroke-width="2" stroke-linecap="round" stroke-linejoin="round"/>
<circle cx="16" cy="9" r="1" fill="#A9AEAB"/>
<circle cx="13" cy="9" r="1" fill="#A9AEAB"/>
<circle cx="10" cy="9" r="1" fill="#A9AEAB"/>
<path d="M3.50922 21.3812C2.91196 20.7839 2.91196 19.8156 3.50922 19.2184L9.67818 13.0494L12.4189 12.4702L11.841 15.2122L5.67203 21.3812C5.07481 21.9785 4.10648 21.9785 3.50922 21.3812Z" stroke="#A9AEAB" stroke-width="2" stroke-linecap="round" stroke-linejoin="round"/>
<path d="M4.53137 18.1963L6.69418 20.3591" stroke="#A9AEAB" stroke-width="2" stroke-linecap="round" stroke-linejoin="round"/>
</svg>
