<svg width="122" height="20" viewBox="0 0 122 20" fill="none" xmlns="http://www.w3.org/2000/svg">
<path d="M1.85548 13.3178C1.57907 12.6875 0.999939 12.3342 0.552429 12.542C0.10492 12.7498 -0.0267011 13.4287 0.249702 14.0591C0.526105 14.6895 1.10524 15.0428 1.55275 14.8349C1.99368 14.634 2.13188 13.9552 1.85548 13.3178ZM6.43588 16.8646C6.54115 17.1971 6.36346 17.5574 6.04759 17.6682C5.75144 17.8414 5.37632 17.7375 5.19863 17.4327C5.09992 17.0933 5.27103 16.733 5.5935 16.6291C5.88965 16.4559 6.25819 16.5599 6.43588 16.8646ZM11.1413 17.9661C11.7007 18.645 13.3525 19.0953 15.4519 19.3239C13.6553 18.1323 11.9179 16.9686 10.2068 15.8394C10.2924 16.636 10.6214 17.3842 11.1413 17.9661ZM4.40891 14.8419C5.27103 16.1511 7.18613 15.2783 8.44306 14.6825C6.8702 13.6504 5.31051 12.639 3.75739 11.6553C3.97457 11.967 4.12593 12.3203 4.2049 12.7013C4.36942 13.6157 3.96798 14.1699 4.40891 14.8419ZM1.84889 7.65821C7.01503 10.9903 11.8389 14.9597 18.3936 19.4971C19.5387 19.5109 20.7167 19.4763 21.8749 19.3862C12.8524 13.7058 9.07487 8.98827 4.12593 5.54534C3.1651 5.96791 2.2964 6.53597 1.84889 7.65821ZM30.0881 16.4906C30.7857 15.687 31.1476 14.6271 31.1016 13.5395C20.9141 11.1773 22.4673 7.4088 17.571 4.47853C16.7812 4.63786 15.9586 4.56859 15.2018 4.27071C14.6951 4.01439 14.162 3.73038 13.0761 2.64971C11.602 2.24792 10.1147 1.92233 8.61422 1.6868C8.51547 1.90155 8.44306 2.13708 8.35753 2.38647C19.3347 5.19898 14.1291 11.0941 30.0881 16.4906ZM8.02849 3.12769C7.7718 3.57104 7.41643 3.94512 7.00186 4.22222C6.75176 4.3954 6.48854 4.5478 6.21869 4.6725C11.036 8.05307 13.5302 13.0685 24.5008 19.0814C25.126 18.9775 25.7249 18.8666 26.2777 18.7281C26.9687 18.5619 27.64 18.2987 28.2717 17.9592C13.6421 11.8215 15.1163 6.2173 8.02849 3.12769ZM10.0357 0.578423C9.67376 0.654624 9.33808 0.827807 9.04854 1.07027C10.1476 1.23652 11.1545 1.41663 12.0824 1.60367C11.2466 0.675406 10.9768 0.329038 10.0357 0.578423ZM20.0389 4.18758C24.843 6.83382 23.619 9.80566 30.3579 11.0872C30.246 10.8794 30.1276 10.6716 29.9894 10.4638C28.6534 8.41329 23.9809 4.49931 20.0389 4.18758Z" fill="#01B7E6"/>
<path d="M48.4208 7.90909C48.3654 7.44129 48.1407 7.07812 47.7468 6.8196C47.3529 6.56108 46.8697 6.43182 46.2972 6.43182C45.8787 6.43182 45.5124 6.49953 45.1985 6.63494C44.8877 6.77036 44.6445 6.95656 44.4691 7.19354C44.2968 7.43052 44.2106 7.69981 44.2106 8.00142C44.2106 8.25379 44.2706 8.47076 44.3906 8.65234C44.5137 8.83085 44.6707 8.98011 44.8615 9.10014C45.0523 9.21709 45.2524 9.31404 45.4616 9.39098C45.6709 9.46484 45.8633 9.52486 46.0387 9.57102L46.9989 9.82955C47.2451 9.89418 47.5191 9.98343 47.8207 10.0973C48.1254 10.2112 48.4162 10.3666 48.6932 10.5636C48.9732 10.7575 49.2041 11.0067 49.3857 11.3114C49.5672 11.6161 49.658 11.9901 49.658 12.4332C49.658 12.9441 49.5241 13.4058 49.2564 13.8182C48.9917 14.2306 48.6039 14.5584 48.093 14.8015C47.5852 15.0446 46.9682 15.1662 46.2418 15.1662C45.5647 15.1662 44.9785 15.0569 44.483 14.8384C43.9905 14.6199 43.6027 14.3152 43.3196 13.9244C43.0395 13.5335 42.881 13.0795 42.8441 12.5625H44.0259C44.0567 12.9195 44.1767 13.215 44.386 13.4489C44.5984 13.6797 44.8661 13.852 45.1893 13.9659C45.5155 14.0767 45.8664 14.1321 46.2418 14.1321C46.6789 14.1321 47.0713 14.0613 47.419 13.9197C47.7668 13.7751 48.0423 13.575 48.2454 13.3196C48.4485 13.0611 48.5501 12.7595 48.5501 12.4148C48.5501 12.1009 48.4624 11.8454 48.2869 11.6484C48.1115 11.4515 47.8807 11.2914 47.5945 11.1683C47.3082 11.0452 46.9989 10.9375 46.6665 10.8452L45.5032 10.5128C44.7646 10.3004 44.1798 9.99728 43.7489 9.60334C43.3181 9.2094 43.1026 8.69389 43.1026 8.05682C43.1026 7.52746 43.2457 7.06581 43.532 6.67188C43.8213 6.27486 44.209 5.96709 44.6953 5.74858C45.1847 5.52699 45.7309 5.41619 46.3342 5.41619C46.9435 5.41619 47.4852 5.52545 47.9592 5.74396C48.4331 5.9594 48.8086 6.25485 49.0856 6.63033C49.3656 7.0058 49.5134 7.43205 49.5288 7.90909H48.4208ZM54.4765 7.90909V8.83239H50.8018V7.90909H54.4765ZM51.8728 6.21023H52.9623V12.9688C52.9623 13.2765 53.0069 13.5073 53.0961 13.6612C53.1885 13.812 53.3054 13.9136 53.447 13.9659C53.5916 14.0152 53.744 14.0398 53.904 14.0398C54.0241 14.0398 54.1225 14.0336 54.1995 14.0213C54.2764 14.0059 54.338 13.9936 54.3841 13.9844L54.6057 14.9631C54.5319 14.9908 54.4288 15.0185 54.2964 15.0462C54.1641 15.0769 53.9964 15.0923 53.7932 15.0923C53.4855 15.0923 53.1839 15.0262 52.8884 14.8938C52.596 14.7615 52.3529 14.5599 52.159 14.2891C51.9682 14.0182 51.8728 13.6766 51.8728 13.2642V6.21023ZM60.5841 12.1009V7.90909H61.6736V15H60.5841V13.7997H60.5102C60.344 14.1598 60.0855 14.466 59.7346 14.7184C59.3838 14.9677 58.9406 15.0923 58.4051 15.0923C57.9619 15.0923 57.568 14.9954 57.2233 14.8015C56.8786 14.6045 56.6077 14.3091 56.4108 13.9151C56.2138 13.5181 56.1153 13.018 56.1153 12.4148V7.90909H57.2048V12.3409C57.2048 12.858 57.3495 13.2704 57.6388 13.5781C57.9311 13.8859 58.3035 14.0398 58.7559 14.0398C59.0268 14.0398 59.3022 13.9705 59.5823 13.832C59.8654 13.6935 60.1024 13.4812 60.2932 13.195C60.4871 12.9087 60.5841 12.544 60.5841 12.1009ZM66.3466 15.1477C65.7557 15.1477 65.234 14.9985 64.7816 14.6999C64.3292 14.3983 63.9753 13.9736 63.7198 13.4258C63.4644 12.8749 63.3366 12.224 63.3366 11.473C63.3366 10.7282 63.4644 10.0819 63.7198 9.53409C63.9753 8.98627 64.3307 8.56309 64.7862 8.26456C65.2417 7.96603 65.768 7.81676 66.3651 7.81676C66.8267 7.81676 67.1914 7.8937 67.4592 8.04759C67.73 8.19839 67.9362 8.37074 68.0778 8.56463C68.2224 8.75544 68.3348 8.91241 68.4148 9.03551H68.5071V5.54545H69.5966V15H68.544V13.9105H68.4148C68.3348 14.0398 68.2209 14.2029 68.0732 14.3999C67.9254 14.5937 67.7146 14.7676 67.4407 14.9215C67.1668 15.0723 66.8021 15.1477 66.3466 15.1477ZM66.4943 14.169C66.9313 14.169 67.3007 14.0552 67.6023 13.8274C67.9039 13.5966 68.1332 13.2781 68.2901 12.8718C68.4471 12.4625 68.5256 11.9901 68.5256 11.4545C68.5256 10.9252 68.4486 10.462 68.2947 10.065C68.1409 9.66489 67.9131 9.35405 67.6115 9.13246C67.3099 8.90779 66.9375 8.79545 66.4943 8.79545C66.0327 8.79545 65.648 8.91394 65.3402 9.15092C65.0355 9.38482 64.8062 9.70336 64.6523 10.1065C64.5015 10.5066 64.4261 10.956 64.4261 11.4545C64.4261 11.9593 64.5031 12.4179 64.657 12.8303C64.8139 13.2396 65.0447 13.5658 65.3494 13.8089C65.6572 14.049 66.0388 14.169 66.4943 14.169ZM71.7433 15V7.90909H72.8327V15H71.7433ZM72.2972 6.72727C72.0849 6.72727 71.9018 6.65495 71.7479 6.5103C71.5971 6.36565 71.5217 6.19176 71.5217 5.98864C71.5217 5.78551 71.5971 5.61162 71.7479 5.46697C71.9018 5.32232 72.0849 5.25 72.2972 5.25C72.5096 5.25 72.6912 5.32232 72.842 5.46697C72.9959 5.61162 73.0728 5.78551 73.0728 5.98864C73.0728 6.19176 72.9959 6.36565 72.842 6.5103C72.6912 6.65495 72.5096 6.72727 72.2972 6.72727ZM77.7089 15.1477C77.0687 15.1477 76.5071 14.9954 76.0239 14.6907C75.5438 14.386 75.1683 13.9598 74.8975 13.4119C74.6297 12.8641 74.4958 12.224 74.4958 11.4915C74.4958 10.7528 74.6297 10.1081 74.8975 9.55717C75.1683 9.00627 75.5438 8.57848 76.0239 8.27379C76.5071 7.96911 77.0687 7.81676 77.7089 7.81676C78.349 7.81676 78.9092 7.96911 79.3893 8.27379C79.8725 8.57848 80.248 9.00627 80.5157 9.55717C80.7865 10.1081 80.922 10.7528 80.922 11.4915C80.922 12.224 80.7865 12.8641 80.5157 13.4119C80.248 13.9598 79.8725 14.386 79.3893 14.6907C78.9092 14.9954 78.349 15.1477 77.7089 15.1477ZM77.7089 14.169C78.1952 14.169 78.5953 14.0444 78.9092 13.7951C79.2231 13.5458 79.4555 13.218 79.6063 12.8118C79.7571 12.4055 79.8325 11.9654 79.8325 11.4915C79.8325 11.0175 79.7571 10.5759 79.6063 10.1665C79.4555 9.75722 79.2231 9.42637 78.9092 9.17401C78.5953 8.92164 78.1952 8.79545 77.7089 8.79545C77.2226 8.79545 76.8225 8.92164 76.5086 9.17401C76.1947 9.42637 75.9623 9.75722 75.8115 10.1665C75.6607 10.5759 75.5853 11.0175 75.5853 11.4915C75.5853 11.9654 75.6607 12.4055 75.8115 12.8118C75.9623 13.218 76.1947 13.5458 76.5086 13.7951C76.8225 14.0444 77.2226 14.169 77.7089 14.169ZM82.585 17.6591V7.90909H83.6376V9.03551H83.7669C83.8469 8.91241 83.9577 8.75544 84.0993 8.56463C84.2439 8.37074 84.4501 8.19839 84.7179 8.04759C84.9887 7.8937 85.3549 7.81676 85.8166 7.81676C86.4136 7.81676 86.9399 7.96603 87.3954 8.26456C87.8509 8.56309 88.2064 8.98627 88.4618 9.53409C88.7173 10.0819 88.845 10.7282 88.845 11.473C88.845 12.224 88.7173 12.8749 88.4618 13.4258C88.2064 13.9736 87.8525 14.3983 87.4 14.6999C86.9476 14.9985 86.426 15.1477 85.835 15.1477C85.3796 15.1477 85.0149 15.0723 84.7409 14.9215C84.467 14.7676 84.2562 14.5937 84.1085 14.3999C83.9608 14.2029 83.8469 14.0398 83.7669 13.9105H83.6745V17.6591H82.585ZM83.6561 11.4545C83.6561 11.9901 83.7346 12.4625 83.8915 12.8718C84.0485 13.2781 84.2778 13.5966 84.5794 13.8274C84.881 14.0552 85.2503 14.169 85.6873 14.169C86.1428 14.169 86.5229 14.049 86.8276 13.8089C87.1354 13.5658 87.3662 13.2396 87.5201 12.8303C87.677 12.4179 87.7555 11.9593 87.7555 11.4545C87.7555 10.956 87.6786 10.5066 87.5247 10.1065C87.3739 9.70336 87.1446 9.38482 86.8368 9.15092C86.5321 8.91394 86.149 8.79545 85.6873 8.79545C85.2441 8.79545 84.8717 8.90779 84.5701 9.13246C84.2685 9.35405 84.0408 9.66489 83.8869 10.065C83.733 10.462 83.6561 10.9252 83.6561 11.4545ZM90.5069 15V7.90909H91.5595V8.98011H91.6333C91.7626 8.62926 91.9965 8.34458 92.335 8.12606C92.6736 7.90755 93.0552 7.79829 93.4799 7.79829C93.56 7.79829 93.66 7.79983 93.78 7.80291C93.9 7.80599 93.9908 7.81061 94.0524 7.81676V8.92472C94.0154 8.91548 93.9308 8.90163 93.7985 8.88317C93.6692 8.86162 93.5323 8.85085 93.3876 8.85085C93.0429 8.85085 92.7351 8.92318 92.4643 9.06783C92.1966 9.2094 91.9842 9.40637 91.8272 9.65874C91.6734 9.90803 91.5964 10.1927 91.5964 10.5128V15H90.5069ZM98.101 15.1477C97.4178 15.1477 96.8284 14.9969 96.3329 14.6953C95.8405 14.3906 95.4604 13.9659 95.1926 13.4212C94.928 12.8733 94.7956 12.2363 94.7956 11.5099C94.7956 10.7836 94.928 10.1435 95.1926 9.58949C95.4604 9.03243 95.8328 8.59848 96.3098 8.28764C96.79 7.97372 97.3501 7.81676 97.9902 7.81676C98.3596 7.81676 98.7243 7.87831 99.0843 8.00142C99.4444 8.12453 99.7722 8.32457 100.068 8.60156C100.363 8.87547 100.599 9.23864 100.774 9.69105C100.949 10.1435 101.037 10.7005 101.037 11.3622V11.8239H95.5712V10.8821H99.9292C99.9292 10.482 99.8491 10.125 99.6891 9.81108C99.5321 9.49716 99.3075 9.24941 99.0151 9.06783C98.7258 8.88625 98.3842 8.79545 97.9902 8.79545C97.5563 8.79545 97.1808 8.90317 96.8638 9.11861C96.5499 9.33097 96.3083 9.60795 96.139 9.94957C95.9698 10.2912 95.8851 10.6574 95.8851 11.0483V11.6761C95.8851 12.2116 95.9775 12.6656 96.1621 13.038C96.3498 13.4073 96.6099 13.6889 96.9423 13.8828C97.2747 14.0736 97.6609 14.169 98.101 14.169C98.3873 14.169 98.6458 14.129 98.8766 14.049C99.1105 13.9659 99.3121 13.8428 99.4814 13.6797C99.6506 13.5135 99.7814 13.3073 99.8738 13.0611L100.926 13.3565C100.816 13.7135 100.629 14.0275 100.368 14.2983C100.106 14.5661 99.783 14.7753 99.3983 14.9261C99.0136 15.0739 98.5811 15.1477 98.101 15.1477ZM107.717 9.49716L106.738 9.77415C106.677 9.61103 106.586 9.45253 106.466 9.29865C106.349 9.14169 106.189 9.01243 105.986 8.91087C105.783 8.8093 105.523 8.75852 105.206 8.75852C104.772 8.75852 104.41 8.85855 104.121 9.05859C103.835 9.25556 103.692 9.50639 103.692 9.81108C103.692 10.0819 103.79 10.2958 103.987 10.4528C104.184 10.6097 104.492 10.7405 104.91 10.8452L105.963 11.1037C106.597 11.2576 107.069 11.493 107.38 11.81C107.691 12.1239 107.846 12.5286 107.846 13.0241C107.846 13.4304 107.729 13.7936 107.496 14.1136C107.265 14.4337 106.942 14.6861 106.526 14.8707C106.111 15.0554 105.627 15.1477 105.077 15.1477C104.353 15.1477 103.755 14.9908 103.281 14.6768C102.807 14.3629 102.507 13.9044 102.381 13.3011L103.415 13.0426C103.513 13.4242 103.699 13.7105 103.973 13.9013C104.25 14.0921 104.612 14.1875 105.058 14.1875C105.566 14.1875 105.969 14.0798 106.268 13.8643C106.569 13.6458 106.72 13.3842 106.72 13.0795C106.72 12.8333 106.634 12.6271 106.461 12.4609C106.289 12.2917 106.024 12.1655 105.667 12.0824L104.486 11.8054C103.836 11.6515 103.359 11.413 103.055 11.0898C102.753 10.7636 102.602 10.3558 102.602 9.86648C102.602 9.46638 102.714 9.11245 102.939 8.80469C103.167 8.49692 103.476 8.25533 103.867 8.0799C104.261 7.90447 104.707 7.81676 105.206 7.81676C105.907 7.81676 106.458 7.97064 106.858 8.27841C107.262 8.58617 107.548 8.99242 107.717 9.49716ZM112.57 7.90909V8.83239H108.896V7.90909H112.57ZM109.967 6.21023H111.056V12.9688C111.056 13.2765 111.101 13.5073 111.19 13.6612C111.282 13.812 111.399 13.9136 111.541 13.9659C111.685 14.0152 111.838 14.0398 111.998 14.0398C112.118 14.0398 112.216 14.0336 112.293 14.0213C112.37 14.0059 112.432 13.9936 112.478 13.9844L112.699 14.9631C112.626 14.9908 112.523 15.0185 112.39 15.0462C112.258 15.0769 112.09 15.0923 111.887 15.0923C111.579 15.0923 111.278 15.0262 110.982 14.8938C110.69 14.7615 110.447 14.5599 110.253 14.2891C110.062 14.0182 109.967 13.6766 109.967 13.2642V6.21023ZM117.014 15.1477C116.373 15.1477 115.812 14.9954 115.329 14.6907C114.848 14.386 114.473 13.9598 114.202 13.4119C113.934 12.8641 113.801 12.224 113.801 11.4915C113.801 10.7528 113.934 10.1081 114.202 9.55717C114.473 9.00627 114.848 8.57848 115.329 8.27379C115.812 7.96911 116.373 7.81676 117.014 7.81676C117.654 7.81676 118.214 7.96911 118.694 8.27379C119.177 8.57848 119.553 9.00627 119.82 9.55717C120.091 10.1081 120.227 10.7528 120.227 11.4915C120.227 12.224 120.091 12.8641 119.82 13.4119C119.553 13.9598 119.177 14.386 118.694 14.6907C118.214 14.9954 117.654 15.1477 117.014 15.1477ZM117.014 14.169C117.5 14.169 117.9 14.0444 118.214 13.7951C118.528 13.5458 118.76 13.218 118.911 12.8118C119.062 12.4055 119.137 11.9654 119.137 11.4915C119.137 11.0175 119.062 10.5759 118.911 10.1665C118.76 9.75722 118.528 9.42637 118.214 9.17401C117.9 8.92164 117.5 8.79545 117.014 8.79545C116.527 8.79545 116.127 8.92164 115.813 9.17401C115.499 9.42637 115.267 9.75722 115.116 10.1665C114.965 10.5759 114.89 11.0175 114.89 11.4915C114.89 11.9654 114.965 12.4055 115.116 12.8118C115.267 13.218 115.499 13.5458 115.813 13.7951C116.127 14.0444 116.527 14.169 117.014 14.169Z" fill="#01B7E6"/>
</svg>
