<svg viewBox="0 0 122 20" fill="none" xmlns="http://www.w3.org/2000/svg">
<path d="M1.80274 13.3178C1.52633 12.6875 0.947205 12.3342 0.499695 12.542C0.0521853 12.7498 -0.0794355 13.4287 0.196968 14.0591C0.473371 14.6895 1.0525 15.0428 1.50001 14.8349C1.94094 14.634 2.07914 13.9552 1.80274 13.3178ZM6.38314 16.8646C6.48842 17.1971 6.31073 17.5574 5.99485 17.6682C5.69871 17.8414 5.32359 17.7375 5.1459 17.4327C5.04719 17.0933 5.21829 16.733 5.54076 16.6291C5.83691 16.4559 6.20546 16.5599 6.38314 16.8646ZM11.0886 17.9661C11.648 18.645 13.2998 19.0953 15.3992 19.3239C13.6025 18.1323 11.8651 16.9686 10.1541 15.8394C10.2396 16.636 10.5687 17.3842 11.0886 17.9661ZM4.35618 14.8419C5.21829 16.1511 7.1334 15.2783 8.39032 14.6825C6.81746 13.6504 5.25778 12.639 3.70466 11.6553C3.92183 11.967 4.07319 12.3203 4.15217 12.7013C4.31669 13.6157 3.91525 14.1699 4.35618 14.8419ZM1.79616 7.65821C6.96229 10.9903 11.7861 14.9597 18.3409 19.4971C19.486 19.5109 20.664 19.4763 21.8222 19.3862C12.7997 13.7058 9.02213 8.98827 4.07319 5.54534C3.11237 5.96791 2.24367 6.53597 1.79616 7.65821ZM30.0354 16.4906C30.7329 15.687 31.0949 14.6271 31.0488 13.5395C20.8614 11.1773 22.4145 7.4088 17.5182 4.47853C16.7285 4.63786 15.9059 4.56859 15.1491 4.27071C14.6423 4.01439 14.1093 3.73038 13.0234 2.64971C11.5493 2.24792 10.0619 1.92233 8.56148 1.6868C8.46274 1.90155 8.39032 2.13708 8.3048 2.38647C19.282 5.19898 14.0763 11.0941 30.0354 16.4906ZM7.97575 3.12769C7.71907 3.57104 7.36369 3.94512 6.94912 4.22222C6.69902 4.3954 6.43581 4.5478 6.16596 4.6725C10.9833 8.05307 13.4775 13.0685 24.4481 19.0814C25.0733 18.9775 25.6722 18.8666 26.225 18.7281C26.916 18.5619 27.5872 18.2987 28.219 17.9592C13.5894 11.8215 15.0635 6.2173 7.97575 3.12769ZM9.98293 0.578423C9.62103 0.654624 9.28535 0.827807 8.9958 1.07027C10.0948 1.23652 11.1017 1.41663 12.0297 1.60367C11.1939 0.675406 10.924 0.329038 9.98293 0.578423ZM19.9861 4.18758C24.7903 6.83382 23.5662 9.80566 30.3052 11.0872C30.1933 10.8794 30.0749 10.6716 29.9367 10.4638C28.6007 8.41329 23.9282 4.49931 19.9861 4.18758Z" fill="#6D7378"/>
<path d="M48.3681 7.90909C48.3127 7.44129 48.088 7.07812 47.6941 6.8196C47.3001 6.56108 46.8169 6.43182 46.2445 6.43182C45.8259 6.43182 45.4597 6.49953 45.1458 6.63494C44.8349 6.77036 44.5918 6.95656 44.4164 7.19354C44.244 7.43052 44.1578 7.69981 44.1578 8.00142C44.1578 8.25379 44.2179 8.47076 44.3379 8.65234C44.461 8.83085 44.618 8.98011 44.8088 9.10014C44.9996 9.21709 45.1996 9.31404 45.4089 9.39098C45.6182 9.46484 45.8105 9.52486 45.986 9.57102L46.9462 9.82955C47.1924 9.89418 47.4663 9.98343 47.7679 10.0973C48.0726 10.2112 48.3635 10.3666 48.6404 10.5636C48.9205 10.7575 49.1513 11.0067 49.3329 11.3114C49.5145 11.6161 49.6053 11.9901 49.6053 12.4332C49.6053 12.9441 49.4714 13.4058 49.2037 13.8182C48.939 14.2306 48.5512 14.5584 48.0403 14.8015C47.5325 15.0446 46.9154 15.1662 46.1891 15.1662C45.512 15.1662 44.9257 15.0569 44.4302 14.8384C43.9378 14.6199 43.55 14.3152 43.2669 13.9244C42.9868 13.5335 42.8283 13.0795 42.7914 12.5625H43.9732C44.004 12.9195 44.124 13.215 44.3333 13.4489C44.5456 13.6797 44.8134 13.852 45.1365 13.9659C45.4628 14.0767 45.8136 14.1321 46.1891 14.1321C46.6261 14.1321 47.0185 14.0613 47.3663 13.9197C47.7141 13.7751 47.9895 13.575 48.1926 13.3196C48.3958 13.0611 48.4973 12.7595 48.4973 12.4148C48.4973 12.1009 48.4096 11.8454 48.2342 11.6484C48.0588 11.4515 47.8279 11.2914 47.5417 11.1683C47.2555 11.0452 46.9462 10.9375 46.6138 10.8452L45.4505 10.5128C44.7118 10.3004 44.1271 9.99728 43.6962 9.60334C43.2653 9.2094 43.0499 8.69389 43.0499 8.05682C43.0499 7.52746 43.193 7.06581 43.4792 6.67188C43.7685 6.27486 44.1563 5.96709 44.6426 5.74858C45.1319 5.52699 45.6782 5.41619 46.2814 5.41619C46.8908 5.41619 47.4325 5.52545 47.9064 5.74396C48.3804 5.9594 48.7559 6.25485 49.0328 6.63033C49.3129 7.0058 49.4606 7.43205 49.476 7.90909H48.3681ZM54.4237 7.90909V8.83239H50.749V7.90909H54.4237ZM51.82 6.21023H52.9095V12.9688C52.9095 13.2765 52.9542 13.5073 53.0434 13.6612C53.1357 13.812 53.2527 13.9136 53.3943 13.9659C53.5389 14.0152 53.6913 14.0398 53.8513 14.0398C53.9713 14.0398 54.0698 14.0336 54.1468 14.0213C54.2237 14.0059 54.2852 13.9936 54.3314 13.9844L54.553 14.9631C54.4791 14.9908 54.376 15.0185 54.2437 15.0462C54.1114 15.0769 53.9436 15.0923 53.7405 15.0923C53.4327 15.0923 53.1311 15.0262 52.8357 14.8938C52.5433 14.7615 52.3002 14.5599 52.1063 14.2891C51.9155 14.0182 51.82 13.6766 51.82 13.2642V6.21023ZM60.5313 12.1009V7.90909H61.6208V15H60.5313V13.7997H60.4575C60.2913 14.1598 60.0328 14.466 59.6819 14.7184C59.3311 14.9677 58.8879 15.0923 58.3524 15.0923C57.9092 15.0923 57.5152 14.9954 57.1705 14.8015C56.8258 14.6045 56.555 14.3091 56.358 13.9151C56.1611 13.5181 56.0626 13.018 56.0626 12.4148V7.90909H57.1521V12.3409C57.1521 12.858 57.2967 13.2704 57.586 13.5781C57.8784 13.8859 58.2508 14.0398 58.7032 14.0398C58.974 14.0398 59.2495 13.9705 59.5296 13.832C59.8127 13.6935 60.0497 13.4812 60.2405 13.195C60.4344 12.9087 60.5313 12.544 60.5313 12.1009ZM66.2939 15.1477C65.7029 15.1477 65.1813 14.9985 64.7289 14.6999C64.2765 14.3983 63.9225 13.9736 63.6671 13.4258C63.4116 12.8749 63.2839 12.224 63.2839 11.473C63.2839 10.7282 63.4116 10.0819 63.6671 9.53409C63.9225 8.98627 64.278 8.56309 64.7335 8.26456C65.189 7.96603 65.7153 7.81676 66.3123 7.81676C66.774 7.81676 67.1387 7.8937 67.4064 8.04759C67.6773 8.19839 67.8835 8.37074 68.025 8.56463C68.1697 8.75544 68.282 8.91241 68.362 9.03551H68.4544V5.54545H69.5439V15H68.4913V13.9105H68.362C68.282 14.0398 68.1681 14.2029 68.0204 14.3999C67.8727 14.5937 67.6619 14.7676 67.388 14.9215C67.1141 15.0723 66.7493 15.1477 66.2939 15.1477ZM66.4416 14.169C66.8786 14.169 67.2479 14.0552 67.5495 13.8274C67.8511 13.5966 68.0804 13.2781 68.2374 12.8718C68.3944 12.4625 68.4728 11.9901 68.4728 11.4545C68.4728 10.9252 68.3959 10.462 68.242 10.065C68.0881 9.66489 67.8604 9.35405 67.5588 9.13246C67.2572 8.90779 66.8848 8.79545 66.4416 8.79545C65.9799 8.79545 65.5952 8.91394 65.2875 9.15092C64.9828 9.38482 64.7535 9.70336 64.5996 10.1065C64.4488 10.5066 64.3734 10.956 64.3734 11.4545C64.3734 11.9593 64.4503 12.4179 64.6042 12.8303C64.7612 13.2396 64.992 13.5658 65.2967 13.8089C65.6045 14.049 65.9861 14.169 66.4416 14.169ZM71.6905 15V7.90909H72.78V15H71.6905ZM72.2445 6.72727C72.0321 6.72727 71.849 6.65495 71.6951 6.5103C71.5443 6.36565 71.4689 6.19176 71.4689 5.98864C71.4689 5.78551 71.5443 5.61162 71.6951 5.46697C71.849 5.32232 72.0321 5.25 72.2445 5.25C72.4569 5.25 72.6384 5.32232 72.7892 5.46697C72.9431 5.61162 73.0201 5.78551 73.0201 5.98864C73.0201 6.19176 72.9431 6.36565 72.7892 6.5103C72.6384 6.65495 72.4569 6.72727 72.2445 6.72727ZM77.6562 15.1477C77.016 15.1477 76.4543 14.9954 75.9711 14.6907C75.491 14.386 75.1156 13.9598 74.8447 13.4119C74.577 12.8641 74.4431 12.224 74.4431 11.4915C74.4431 10.7528 74.577 10.1081 74.8447 9.55717C75.1156 9.00627 75.491 8.57848 75.9711 8.27379C76.4543 7.96911 77.016 7.81676 77.6562 7.81676C78.2963 7.81676 78.8564 7.96911 79.3366 8.27379C79.8198 8.57848 80.1952 9.00627 80.463 9.55717C80.7338 10.1081 80.8692 10.7528 80.8692 11.4915C80.8692 12.224 80.7338 12.8641 80.463 13.4119C80.1952 13.9598 79.8198 14.386 79.3366 14.6907C78.8564 14.9954 78.2963 15.1477 77.6562 15.1477ZM77.6562 14.169C78.1424 14.169 78.5425 14.0444 78.8564 13.7951C79.1704 13.5458 79.4027 13.218 79.5535 12.8118C79.7043 12.4055 79.7797 11.9654 79.7797 11.4915C79.7797 11.0175 79.7043 10.5759 79.5535 10.1665C79.4027 9.75722 79.1704 9.42637 78.8564 9.17401C78.5425 8.92164 78.1424 8.79545 77.6562 8.79545C77.1699 8.79545 76.7698 8.92164 76.4559 9.17401C76.142 9.42637 75.9096 9.75722 75.7588 10.1665C75.608 10.5759 75.5326 11.0175 75.5326 11.4915C75.5326 11.9654 75.608 12.4055 75.7588 12.8118C75.9096 13.218 76.142 13.5458 76.4559 13.7951C76.7698 14.0444 77.1699 14.169 77.6562 14.169ZM82.5323 17.6591V7.90909H83.5849V9.03551H83.7141C83.7942 8.91241 83.9049 8.75544 84.0465 8.56463C84.1912 8.37074 84.3974 8.19839 84.6651 8.04759C84.936 7.8937 85.3022 7.81676 85.7638 7.81676C86.3609 7.81676 86.8872 7.96603 87.3427 8.26456C87.7982 8.56309 88.1536 8.98627 88.4091 9.53409C88.6645 10.0819 88.7923 10.7282 88.7923 11.473C88.7923 12.224 88.6645 12.8749 88.4091 13.4258C88.1536 13.9736 87.7997 14.3983 87.3473 14.6999C86.8949 14.9985 86.3732 15.1477 85.7823 15.1477C85.3268 15.1477 84.9621 15.0723 84.6882 14.9215C84.4143 14.7676 84.2035 14.5937 84.0558 14.3999C83.908 14.2029 83.7942 14.0398 83.7141 13.9105H83.6218V17.6591H82.5323ZM83.6033 11.4545C83.6033 11.9901 83.6818 12.4625 83.8388 12.8718C83.9957 13.2781 84.225 13.5966 84.5266 13.8274C84.8282 14.0552 85.1976 14.169 85.6346 14.169C86.0901 14.169 86.4702 14.049 86.7749 13.8089C87.0826 13.5658 87.3134 13.2396 87.4673 12.8303C87.6243 12.4179 87.7028 11.9593 87.7028 11.4545C87.7028 10.956 87.6258 10.5066 87.4719 10.1065C87.3211 9.70336 87.0919 9.38482 86.7841 9.15092C86.4794 8.91394 86.0962 8.79545 85.6346 8.79545C85.1914 8.79545 84.819 8.90779 84.5174 9.13246C84.2158 9.35405 83.988 9.66489 83.8342 10.065C83.6803 10.462 83.6033 10.9252 83.6033 11.4545ZM90.4542 15V7.90909H91.5067V8.98011H91.5806C91.7099 8.62926 91.9438 8.34458 92.2823 8.12606C92.6209 7.90755 93.0025 7.79829 93.4272 7.79829C93.5072 7.79829 93.6072 7.79983 93.7273 7.80291C93.8473 7.80599 93.9381 7.81061 93.9996 7.81676V8.92472C93.9627 8.91548 93.8781 8.90163 93.7457 8.88317C93.6165 8.86162 93.4795 8.85085 93.3349 8.85085C92.9902 8.85085 92.6824 8.92318 92.4116 9.06783C92.1438 9.2094 91.9315 9.40637 91.7745 9.65874C91.6206 9.90803 91.5437 10.1927 91.5437 10.5128V15H90.4542ZM98.0483 15.1477C97.3651 15.1477 96.7757 14.9969 96.2802 14.6953C95.7878 14.3906 95.4077 13.9659 95.1399 13.4212C94.8752 12.8733 94.7429 12.2363 94.7429 11.5099C94.7429 10.7836 94.8752 10.1435 95.1399 9.58949C95.4077 9.03243 95.7801 8.59848 96.2571 8.28764C96.7372 7.97372 97.2973 7.81676 97.9375 7.81676C98.3068 7.81676 98.6715 7.87831 99.0316 8.00142C99.3917 8.12453 99.7195 8.32457 100.015 8.60156C100.31 8.87547 100.546 9.23864 100.721 9.69105C100.897 10.1435 100.984 10.7005 100.984 11.3622V11.8239H95.5185V10.8821H99.8764C99.8764 10.482 99.7964 10.125 99.6364 9.81108C99.4794 9.49716 99.2547 9.24941 98.9624 9.06783C98.6731 8.88625 98.3314 8.79545 97.9375 8.79545C97.5036 8.79545 97.1281 8.90317 96.8111 9.11861C96.4972 9.33097 96.2556 9.60795 96.0863 9.94957C95.917 10.2912 95.8324 10.6574 95.8324 11.0483V11.6761C95.8324 12.2116 95.9247 12.6656 96.1094 13.038C96.2971 13.4073 96.5572 13.6889 96.8896 13.8828C97.2219 14.0736 97.6082 14.169 98.0483 14.169C98.3345 14.169 98.593 14.129 98.8239 14.049C99.0578 13.9659 99.2594 13.8428 99.4286 13.6797C99.5979 13.5135 99.7287 13.3073 99.821 13.0611L100.874 13.3565C100.763 13.7135 100.577 14.0275 100.315 14.2983C100.053 14.5661 99.7302 14.7753 99.3455 14.9261C98.9608 15.0739 98.5284 15.1477 98.0483 15.1477ZM107.664 9.49716L106.686 9.77415C106.624 9.61103 106.533 9.45253 106.413 9.29865C106.296 9.14169 106.136 9.01243 105.933 8.91087C105.73 8.8093 105.47 8.75852 105.153 8.75852C104.719 8.75852 104.357 8.85855 104.068 9.05859C103.782 9.25556 103.639 9.50639 103.639 9.81108C103.639 10.0819 103.737 10.2958 103.934 10.4528C104.131 10.6097 104.439 10.7405 104.858 10.8452L105.91 11.1037C106.544 11.2576 107.017 11.493 107.327 11.81C107.638 12.1239 107.794 12.5286 107.794 13.0241C107.794 13.4304 107.677 13.7936 107.443 14.1136C107.212 14.4337 106.889 14.6861 106.473 14.8707C106.058 15.0554 105.575 15.1477 105.024 15.1477C104.301 15.1477 103.702 14.9908 103.228 14.6768C102.754 14.3629 102.454 13.9044 102.328 13.3011L103.362 13.0426C103.46 13.4242 103.647 13.7105 103.92 13.9013C104.197 14.0921 104.559 14.1875 105.005 14.1875C105.513 14.1875 105.916 14.0798 106.215 13.8643C106.516 13.6458 106.667 13.3842 106.667 13.0795C106.667 12.8333 106.581 12.6271 106.409 12.4609C106.236 12.2917 105.972 12.1655 105.615 12.0824L104.433 11.8054C103.783 11.6515 103.306 11.413 103.002 11.0898C102.7 10.7636 102.549 10.3558 102.549 9.86648C102.549 9.46638 102.662 9.11245 102.886 8.80469C103.114 8.49692 103.423 8.25533 103.814 8.0799C104.208 7.90447 104.654 7.81676 105.153 7.81676C105.855 7.81676 106.406 7.97064 106.806 8.27841C107.209 8.58617 107.495 8.99242 107.664 9.49716ZM112.517 7.90909V8.83239H108.843V7.90909H112.517ZM109.914 6.21023H111.003V12.9688C111.003 13.2765 111.048 13.5073 111.137 13.6612C111.229 13.812 111.346 13.9136 111.488 13.9659C111.633 14.0152 111.785 14.0398 111.945 14.0398C112.065 14.0398 112.164 14.0336 112.241 14.0213C112.317 14.0059 112.379 13.9936 112.425 13.9844L112.647 14.9631C112.573 14.9908 112.47 15.0185 112.337 15.0462C112.205 15.0769 112.037 15.0923 111.834 15.0923C111.526 15.0923 111.225 15.0262 110.929 14.8938C110.637 14.7615 110.394 14.5599 110.2 14.2891C110.009 14.0182 109.914 13.6766 109.914 13.2642V6.21023ZM116.961 15.1477C116.321 15.1477 115.759 14.9954 115.276 14.6907C114.796 14.386 114.42 13.9598 114.149 13.4119C113.882 12.8641 113.748 12.224 113.748 11.4915C113.748 10.7528 113.882 10.1081 114.149 9.55717C114.42 9.00627 114.796 8.57848 115.276 8.27379C115.759 7.96911 116.321 7.81676 116.961 7.81676C117.601 7.81676 118.161 7.96911 118.641 8.27379C119.124 8.57848 119.5 9.00627 119.768 9.55717C120.039 10.1081 120.174 10.7528 120.174 11.4915C120.174 12.224 120.039 12.8641 119.768 13.4119C119.5 13.9598 119.124 14.386 118.641 14.6907C118.161 14.9954 117.601 15.1477 116.961 15.1477ZM116.961 14.169C117.447 14.169 117.847 14.0444 118.161 13.7951C118.475 13.5458 118.707 13.218 118.858 12.8118C119.009 12.4055 119.084 11.9654 119.084 11.4915C119.084 11.0175 119.009 10.5759 118.858 10.1665C118.707 9.75722 118.475 9.42637 118.161 9.17401C117.847 8.92164 117.447 8.79545 116.961 8.79545C116.475 8.79545 116.074 8.92164 115.761 9.17401C115.447 9.42637 115.214 9.75722 115.063 10.1665C114.913 10.5759 114.837 11.0175 114.837 11.4915C114.837 11.9654 114.913 12.4055 115.063 12.8118C115.214 13.218 115.447 13.5458 115.761 13.7951C116.074 14.0444 116.475 14.169 116.961 14.169Z" fill="#686F79"/>
</svg>
