<svg viewBox="0 0 23 18" fill="none" xmlns="http://www.w3.org/2000/svg">
<path d="M1.20435 9.78603C2.68808 7.84037 4.642 6.09175 7.04285 5.57856C9.01915 5.15533 11.1177 5.62568 12.8943 6.58524C14.6708 7.54479 16.1571 8.96442 17.4669 10.4963" stroke="#63AF43" stroke-width="1.5" stroke-linecap="round" stroke-linejoin="round"/>
<path d="M8.46151 5.46472C7.50093 6.51162 7.03781 7.99723 7.23285 9.40543C7.42789 10.8136 8.27678 12.1169 9.48567 12.8627C10.5863 13.5423 11.9086 13.7522 13.1983 13.8528C14.488 13.9535 15.7965 13.9604 17.0466 14.2907C18.2968 14.6201 19.5177 15.3316 20.1131 16.4808C20.7558 14.51 21.3547 12.5014 21.4784 10.4317C21.6013 8.36197 21.2112 6.20279 20.0212 4.50642C18.3329 2.09949 15.0421 0.953667 12.2265 1.79239C10.4858 2.31111 8.88682 3.65995 8.46237 5.46472H8.46151Z" stroke="#63AF43" stroke-width="1.5" stroke-linecap="round" stroke-linejoin="round"/>
</svg>
