<svg width="135" height="36" viewBox="0 0 135 36" fill="none" xmlns="http://www.w3.org/2000/svg">
<path d="M51.5669 28.0386V33.6173H50.833V29.4569L48.9789 33.6173H48.4624L46.6001 29.4495V33.6173H45.8662V28.0386H46.6561L48.7202 32.6503L50.7844 28.0386H51.5669Z" fill="#002B31"/>
<path d="M52.8081 30.204C52.9906 29.8627 53.242 29.5985 53.5622 29.4095C53.8814 29.2215 54.2383 29.127 54.63 29.127C55.0171 29.127 55.3529 29.2104 55.6382 29.3765C55.9226 29.5434 56.1354 29.7526 56.2749 30.0049V29.1985H57.0171V33.6167H56.2749V32.7947C56.1299 33.0525 55.9134 33.2662 55.6263 33.4359C55.3391 33.6048 55.0043 33.6901 54.6227 33.6901C54.23 33.6901 53.8759 33.5928 53.5585 33.3993C53.2411 33.2057 52.9915 32.9341 52.809 32.5846C52.6264 32.2351 52.5347 31.8379 52.5347 31.3911C52.5338 30.9416 52.6255 30.5452 52.8081 30.204ZM56.0731 30.5297C55.9391 30.282 55.7575 30.093 55.529 29.9609C55.3006 29.8288 55.0492 29.7636 54.7749 29.7636C54.5006 29.7636 54.2511 29.8278 54.0254 29.9572C53.7998 30.0856 53.619 30.2746 53.4851 30.5214C53.3512 30.7691 53.2833 31.059 53.2833 31.392C53.2833 31.7305 53.3502 32.025 53.4851 32.2745C53.619 32.5241 53.7998 32.7149 54.0254 32.847C54.2511 32.9791 54.5016 33.0442 54.7749 33.0442C55.0492 33.0442 55.3006 32.9782 55.529 32.847C55.7575 32.7149 55.9391 32.5241 56.0731 32.2745C56.207 32.0241 56.2749 31.7333 56.2749 31.3993C56.2749 31.0682 56.2079 30.7773 56.0731 30.5297Z" fill="#002B31"/>
<path d="M60.5635 33.6173L59.515 31.9724L58.5067 33.6173H57.7407L59.1682 31.4238L57.7407 29.1982H58.571L59.6195 30.8349L60.6195 29.1982H61.3855L59.9663 31.3835L61.3938 33.6164H60.5635V33.6173Z" fill="#002B31"/>
<path d="M68.5305 29.6267C68.3745 29.2992 68.1488 29.045 67.8534 28.8652C67.558 28.6854 67.214 28.5946 66.8214 28.5946C66.4287 28.5946 66.0755 28.6845 65.7608 28.8652C65.4462 29.045 65.1994 29.3028 65.0196 29.6395C64.8389 29.9753 64.749 30.3633 64.749 30.8046C64.749 31.245 64.8389 31.6321 65.0196 31.9651C65.1994 32.2981 65.4471 32.555 65.7608 32.7348C66.0755 32.9155 66.4287 33.0054 66.8214 33.0054C67.37 33.0054 67.8213 32.8412 68.1754 32.5137C68.5305 32.1862 68.7369 31.7431 68.7965 31.1835H66.5553V30.5872H69.5781V31.1514C69.535 31.6138 69.3901 32.0367 69.1433 32.4211C68.8956 32.8054 68.5708 33.1091 68.1681 33.332C67.7654 33.555 67.3158 33.6669 66.8214 33.6669C66.3003 33.6669 65.8241 33.5449 65.3939 33.2999C64.9636 33.0559 64.6242 32.7155 64.3737 32.2798C64.1233 31.844 63.9985 31.3523 63.9985 30.8046C63.9985 30.2569 64.1233 29.7634 64.3737 29.3249C64.6233 28.8873 64.9636 28.546 65.3939 28.301C65.8241 28.0561 66.2994 27.9341 66.8214 27.9341C67.4177 27.9341 67.9461 28.0818 68.4057 28.3772C68.8653 28.6726 69.2002 29.0891 69.4093 29.6267H68.5305Z" fill="#002B31"/>
<path d="M71.8311 29.3287C72.0705 29.1893 72.3623 29.1187 72.7063 29.1187V29.8764H72.5127C71.6908 29.8764 71.2788 30.3223 71.2788 31.2149V33.6176H70.5449V29.1994H71.2788V29.9168C71.4073 29.6645 71.5917 29.4682 71.8311 29.3287Z" fill="#002B31"/>
<path d="M74.3549 33.4084C74.0191 33.2204 73.7559 32.9525 73.565 32.6057C73.3742 32.2589 73.2788 31.8571 73.2788 31.4003C73.2788 30.9489 73.377 30.5498 73.5733 30.2031C73.7696 29.8563 74.0366 29.5902 74.3751 29.4049C74.7136 29.2196 75.0925 29.127 75.5117 29.127C75.931 29.127 76.3099 29.2196 76.6484 29.4049C76.9869 29.5902 77.2539 29.8554 77.4511 30.1994C77.6474 30.5434 77.7456 30.9434 77.7456 31.4003C77.7456 31.8571 77.6447 32.2589 77.4429 32.6057C77.241 32.9525 76.9686 33.2195 76.6245 33.4084C76.2805 33.5965 75.8989 33.691 75.4796 33.691C75.0659 33.691 74.6907 33.5965 74.3549 33.4084ZM76.2209 32.8598C76.4521 32.736 76.6392 32.5507 76.7814 32.3039C76.9236 32.0562 76.9952 31.7553 76.9952 31.4012C76.9952 31.0461 76.9254 30.7452 76.786 30.4985C76.6456 30.2508 76.4631 30.0673 76.2374 29.9462C76.0117 29.8251 75.7668 29.7645 75.5035 29.7645C75.2347 29.7645 74.9888 29.8251 74.7659 29.9462C74.543 30.0673 74.3641 30.2517 74.2292 30.4985C74.0953 30.7462 74.0274 31.0471 74.0274 31.4012C74.0274 31.7617 74.0935 32.0654 74.2246 32.3121C74.3568 32.5598 74.532 32.7433 74.7531 32.8644C74.9732 32.9855 75.2154 33.0461 75.4787 33.0461C75.742 33.0461 75.9897 32.9837 76.2209 32.8598Z" fill="#002B31"/>
<path d="M82.6309 29.1992V33.6173H81.897V32.9641C81.7576 33.1898 81.5622 33.366 81.3126 33.4926C81.0631 33.6182 80.7879 33.6815 80.4861 33.6815C80.142 33.6815 79.8329 33.61 79.5586 33.4678C79.2843 33.3256 79.0678 33.1118 78.91 32.8265C78.7513 32.5421 78.6724 32.1944 78.6724 31.7862V29.1982H79.398V31.6899C79.398 32.1247 79.5081 32.4596 79.7283 32.6935C79.9485 32.9274 80.2494 33.044 80.631 33.044C81.0236 33.044 81.3319 32.9229 81.5585 32.6816C81.7842 32.4394 81.897 32.088 81.897 31.6257V29.1992H82.6309Z" fill="#002B31"/>
<path d="M85.2551 29.3811C85.5422 29.2123 85.8771 29.127 86.2587 29.127C86.6513 29.127 87.0073 29.2205 87.3265 29.4095C87.6458 29.5976 87.8972 29.8627 88.0806 30.204C88.2632 30.5452 88.3549 30.9416 88.3549 31.3929C88.3549 31.8388 88.2632 32.2369 88.0806 32.5864C87.8981 32.936 87.6467 33.2075 87.3265 33.4011C87.0064 33.5947 86.6504 33.6919 86.2587 33.6919C85.8826 33.6919 85.5505 33.6066 85.2633 33.4378C84.9762 33.269 84.7569 33.058 84.6065 32.8048V35.7157H83.8726V29.2013H84.6065V30.0159C84.7505 29.7618 84.967 29.5508 85.2551 29.3811ZM87.4036 30.5223C87.2688 30.2746 87.088 30.0866 86.8596 29.9581C86.6312 29.8288 86.3798 29.7645 86.1055 29.7645C85.8367 29.7645 85.5881 29.8306 85.3597 29.9618C85.1312 30.0939 84.9487 30.2847 84.8111 30.5342C84.6744 30.7847 84.6056 31.0737 84.6056 31.4012C84.6056 31.7342 84.6744 32.0259 84.8111 32.2764C84.9477 32.5259 85.1303 32.7167 85.3597 32.8488C85.5881 32.9809 85.8367 33.0461 86.1055 33.0461C86.3798 33.0461 86.6312 32.98 86.8596 32.8488C87.088 32.7167 87.2697 32.5259 87.4036 32.2764C87.5375 32.0259 87.6054 31.7323 87.6054 31.3938C87.6054 31.0599 87.5375 30.7691 87.4036 30.5223Z" fill="#002B31"/>
<path d="M57.7024 10.7169C57.2574 9.78209 56.6143 9.05827 55.7713 8.54453C54.9282 8.0317 53.9475 7.77391 52.8283 7.77391C51.709 7.77391 50.7017 8.03079 49.8045 8.54453C48.9082 9.05827 48.2028 9.79402 47.689 10.7518C47.1753 11.7095 46.9184 12.8177 46.9184 14.0737C46.9184 15.3305 47.1753 16.4341 47.689 17.3845C48.2028 18.335 48.9073 19.067 49.8045 19.5799C50.7017 20.0936 51.709 20.3505 52.8283 20.3505C54.3915 20.3505 55.6795 19.8835 56.6905 18.9478C57.7024 18.013 58.2923 16.7488 58.4611 15.1543H52.0696V13.4526H60.6922V15.0617C60.5692 16.38 60.1555 17.5873 59.45 18.6826C58.7445 19.7789 57.818 20.6449 56.6685 21.2807C55.519 21.9165 54.2392 22.2348 52.8292 22.2348C51.3421 22.2348 49.9853 21.8862 48.7596 21.189C47.5331 20.4917 46.5643 19.5221 45.8515 18.2808C45.1387 17.0396 44.7827 15.6369 44.7827 14.0737C44.7827 12.5104 45.1396 11.1041 45.8515 9.85457C46.5643 8.60508 47.534 7.63264 48.7596 6.9345C49.9862 6.23728 51.3421 5.88867 52.8292 5.88867C54.5309 5.88867 56.0364 6.31068 57.3473 7.15284C58.6574 7.99593 59.6124 9.18395 60.2096 10.7169H57.7024Z" fill="#002B31"/>
<path d="M65.5423 20.396H71.1522V22.0977H63.4497V6.07178H65.5423V20.396Z" fill="#002B31"/>
<path d="M84.6034 6.07178L79.3844 16.0503V22.0968H77.2918V16.0503L72.0498 6.07178H74.3717L78.3266 14.188L82.2815 6.07178H84.6034Z" fill="#002B31"/>
<path d="M87.0866 9.85407C87.7911 8.60458 88.7535 7.62755 89.9718 6.92299C91.1901 6.21843 92.5423 5.86523 94.0294 5.86523C95.777 5.86523 97.3018 6.28724 98.6054 7.12941C99.9081 7.97249 100.858 9.16877 101.457 10.7164H98.9503C98.5054 9.75131 97.8659 9.00731 97.0302 8.48623C96.1945 7.96515 95.1945 7.70461 94.0294 7.70461C92.9102 7.70461 91.9066 7.96515 91.0176 8.48623C90.1286 9.00731 89.4314 9.74765 88.925 10.7054C88.4195 11.6632 88.1663 12.7861 88.1663 14.0732C88.1663 15.3456 88.4195 16.4611 88.925 17.4189C89.4305 18.3766 90.1277 19.117 91.0176 19.6371C91.9066 20.1582 92.9102 20.4188 94.0294 20.4188C95.1945 20.4188 96.1945 20.1619 97.0302 19.6482C97.865 19.1353 98.5054 18.395 98.9503 17.4299H101.457C100.858 18.9629 99.9081 20.1463 98.6054 20.982C97.3027 21.8178 95.777 22.2352 94.0294 22.2352C92.5423 22.2352 91.1901 21.8866 89.9718 21.1894C88.7535 20.4922 87.7911 19.5225 87.0866 18.2812C86.3811 17.04 86.0288 15.6373 86.0288 14.0741C86.0279 12.509 86.3811 11.1036 87.0866 9.85407Z" fill="#002B31"/>
<path d="M106.652 6.07178V22.0968H104.559V6.07178H106.652Z" fill="#002B31"/>
<path d="M122.814 22.0968H120.722L112.306 9.33677V22.0968H110.214V6.04883H112.306L120.722 18.7859V6.04883H122.814V22.0968Z" fill="#002B31"/>
<path d="M128.47 7.77353V13.1302H134.31V14.8549H128.47V20.373H135V22.0977H126.378V6.04883H135V7.77353H128.47Z" fill="#002B31"/>
<path d="M1.4137 11.8135C0.884368 12.318 0.412827 12.8685 0 13.4629C1.68158 5.7972 8.48773 0.0433055 16.6645 0.000188003C17.2562 -0.00256418 17.8415 0.0249563 18.4194 0.0790825C18.4194 0.0790825 18.5681 1.19831 18.069 2.3423C17.5608 3.50647 16.447 4.69174 11.361 6.4513C7.91711 7.64208 4.11268 9.24935 1.4137 11.8135Z" fill="#63AF43"/>
<path d="M34.1923 23.4321C32.1391 30.5584 25.588 35.7858 17.7966 35.8261C16.9774 35.8316 16.1746 35.7775 15.3848 35.6711C15.3848 35.6711 15.4013 34.3528 15.9765 33.3519C16.3453 32.7116 16.8553 31.8547 19.6607 30.5548C19.6635 30.552 19.669 30.5493 19.6745 30.5493C20.6405 30.153 21.7524 29.7328 23.0193 29.2713C26.8852 27.8686 30.8805 26.4146 33.7666 23.8321C33.9124 23.7037 34.0537 23.5707 34.1923 23.4321Z" fill="#63AF43"/>
<path d="M16.7479 16.2287C8.01711 22.6312 5.10164 27.2237 8.76754 33.6702C8.30426 33.4372 7.85382 33.1868 7.41439 32.9198C6.75753 32.518 6.13003 32.0822 5.53281 31.6079C5.52088 31.5997 5.50896 31.5887 5.49978 31.5795C-0.374287 26.399 -1.46048 18.7516 3.05126 14.7141C9.48311 8.95748 24.3871 8.93454 22.9688 0.950464C22.9624 0.905512 22.9541 0.863312 22.9449 0.818359C22.9807 0.868816 23.0165 0.919278 23.0468 0.972486C26.9668 8.42264 20.8808 13.1986 16.7479 16.2287Z" fill="#C5D51A"/>
<path d="M31.3207 21.0507C24.9567 26.7449 10.2977 26.8284 11.3637 34.5685C11.3802 34.6932 11.4013 34.8207 11.4288 34.9483C11.3206 34.8015 11.2096 34.6556 11.1362 34.4923C7.44185 26.3945 14.1526 22.4699 21.2165 17.4022C27.7841 12.6932 29.7831 7.40902 24.9898 1.55972C24.965 1.52944 24.9301 1.51385 24.8999 1.48633C24.9274 1.50284 24.954 1.5166 24.9815 1.52944C25.6705 1.88998 26.3246 2.27804 26.9374 2.69362C34.4683 7.77506 36.2911 16.6022 31.3207 21.0507Z" fill="#FFBF0D"/>
</svg>
