<svg width="135" height="37" viewBox="0 0 135 37" fill="none" xmlns="http://www.w3.org/2000/svg">
<path d="M51.5669 28.6257V34.2044H50.833V30.044L48.9789 34.2044H48.4624L46.6001 30.0367V34.2044H45.8662V28.6257H46.6561L48.7202 33.2375L50.7844 28.6257H51.5669Z" fill="white"/>
<path d="M52.8081 30.7909C52.9906 30.4496 53.242 30.1854 53.5622 29.9964C53.8814 29.8084 54.2383 29.7139 54.63 29.7139C55.0171 29.7139 55.3529 29.7973 55.6382 29.9634C55.9226 30.1304 56.1354 30.3395 56.2749 30.5918V29.7854H57.0171V34.2036H56.2749V33.3816C56.1299 33.6394 55.9134 33.8531 55.6263 34.0229C55.3391 34.1917 55.0043 34.277 54.6227 34.277C54.23 34.277 53.8759 34.1797 53.5585 33.9862C53.2411 33.7926 52.9915 33.5211 52.809 33.1715C52.6264 32.822 52.5347 32.4248 52.5347 31.978C52.5338 31.5285 52.6255 31.1322 52.8081 30.7909ZM56.0731 31.1166C55.9391 30.8689 55.7575 30.6799 55.529 30.5478C55.3006 30.4157 55.0492 30.3505 54.7749 30.3505C54.5006 30.3505 54.2511 30.4148 54.0254 30.5441C53.7998 30.6725 53.619 30.8615 53.4851 31.1083C53.3512 31.356 53.2833 31.6459 53.2833 31.9789C53.2833 32.3174 53.3502 32.6119 53.4851 32.8615C53.619 33.111 53.7998 33.3018 54.0254 33.4339C54.2511 33.566 54.5016 33.6311 54.7749 33.6311C55.0492 33.6311 55.3006 33.5651 55.529 33.4339C55.7575 33.3018 55.9391 33.111 56.0731 32.8615C56.207 32.611 56.2749 32.3202 56.2749 31.9863C56.2749 31.6551 56.2079 31.3643 56.0731 31.1166Z" fill="white"/>
<path d="M60.5635 34.2045L59.515 32.5596L58.5067 34.2045H57.7407L59.1682 32.011L57.7407 29.7854H58.571L59.6195 31.422L60.6195 29.7854H61.3855L59.9663 31.9706L61.3938 34.2036H60.5635V34.2045Z" fill="white"/>
<path d="M68.5305 30.2138C68.3745 29.8863 68.1488 29.6322 67.8534 29.4524C67.558 29.2726 67.214 29.1818 66.8214 29.1818C66.4287 29.1818 66.0755 29.2717 65.7608 29.4524C65.4462 29.6322 65.1994 29.89 65.0196 30.2267C64.8389 30.5624 64.749 30.9505 64.749 31.3918C64.749 31.8321 64.8389 32.2193 65.0196 32.5523C65.1994 32.8853 65.4471 33.1422 65.7608 33.322C66.0755 33.5027 66.4287 33.5926 66.8214 33.5926C67.37 33.5926 67.8213 33.4284 68.1754 33.1009C68.5305 32.7734 68.7369 32.3303 68.7965 31.7707H66.5553V31.1743H69.5781V31.7385C69.535 32.2009 69.3901 32.6238 69.1433 33.0082C68.8956 33.3926 68.5708 33.6963 68.1681 33.9192C67.7654 34.1421 67.3158 34.254 66.8214 34.254C66.3003 34.254 65.8241 34.132 65.3939 33.8871C64.9636 33.643 64.6242 33.3027 64.3737 32.8669C64.1233 32.4312 63.9985 31.9395 63.9985 31.3918C63.9985 30.8441 64.1233 30.3505 64.3737 29.912C64.6233 29.4744 64.9636 29.1331 65.3939 28.8882C65.8241 28.6433 66.2994 28.5212 66.8214 28.5212C67.4177 28.5212 67.9461 28.6689 68.4057 28.9643C68.8653 29.2597 69.2002 29.6762 69.4093 30.2138H68.5305Z" fill="white"/>
<path d="M71.8311 29.9157C72.0705 29.7762 72.3623 29.7056 72.7063 29.7056V30.4633H72.5127C71.6908 30.4633 71.2788 30.9092 71.2788 31.8018V34.2045H70.5449V29.7863H71.2788V30.5037C71.4073 30.2514 71.5917 30.0551 71.8311 29.9157Z" fill="white"/>
<path d="M74.3549 33.9953C74.0191 33.8073 73.7559 33.5394 73.565 33.1926C73.3742 32.8459 73.2788 32.444 73.2788 31.9872C73.2788 31.5358 73.377 31.1367 73.5733 30.79C73.7696 30.4432 74.0366 30.1772 74.3751 29.9918C74.7136 29.8065 75.0925 29.7139 75.5117 29.7139C75.931 29.7139 76.3099 29.8065 76.6484 29.9918C76.9869 30.1772 77.2539 30.4423 77.4511 30.7863C77.6474 31.1303 77.7456 31.5303 77.7456 31.9872C77.7456 32.444 77.6447 32.8459 77.4429 33.1926C77.241 33.5394 76.9686 33.8064 76.6245 33.9953C76.2805 34.1834 75.8989 34.2779 75.4796 34.2779C75.0659 34.2779 74.6907 34.1834 74.3549 33.9953ZM76.2209 33.4467C76.4521 33.3229 76.6392 33.1376 76.7814 32.8908C76.9236 32.6431 76.9952 32.3422 76.9952 31.9881C76.9952 31.6331 76.9254 31.3322 76.786 31.0854C76.6456 30.8377 76.4631 30.6542 76.2374 30.5331C76.0117 30.412 75.7668 30.3515 75.5035 30.3515C75.2347 30.3515 74.9888 30.412 74.7659 30.5331C74.543 30.6542 74.3641 30.8386 74.2292 31.0854C74.0953 31.3331 74.0274 31.634 74.0274 31.9881C74.0274 32.3486 74.0935 32.6523 74.2246 32.8991C74.3568 33.1468 74.532 33.3302 74.7531 33.4513C74.9732 33.5724 75.2154 33.633 75.4787 33.633C75.742 33.633 75.9897 33.5706 76.2209 33.4467Z" fill="white"/>
<path d="M82.6309 29.7863V34.2045H81.897V33.5513C81.7576 33.777 81.5622 33.9531 81.3126 34.0797C81.0631 34.2054 80.7879 34.2687 80.4861 34.2687C80.142 34.2687 79.8329 34.1972 79.5586 34.055C79.2843 33.9128 79.0678 33.699 78.91 33.4137C78.7513 33.1293 78.6724 32.7816 78.6724 32.3734V29.7854H79.398V32.277C79.398 32.7119 79.5081 33.0467 79.7283 33.2807C79.9485 33.5146 80.2494 33.6311 80.631 33.6311C81.0236 33.6311 81.3319 33.51 81.5585 33.2687C81.7842 33.0266 81.897 32.6752 81.897 32.2128V29.7863H82.6309Z" fill="white"/>
<path d="M85.2551 29.968C85.5422 29.7992 85.8771 29.7139 86.2587 29.7139C86.6513 29.7139 87.0073 29.8074 87.3265 29.9964C87.6458 30.1845 87.8972 30.4496 88.0806 30.7909C88.2632 31.1322 88.3549 31.5285 88.3549 31.9798C88.3549 32.4257 88.2632 32.8238 88.0806 33.1734C87.8981 33.5229 87.6467 33.7944 87.3265 33.988C87.0064 34.1816 86.6504 34.2788 86.2587 34.2788C85.8826 34.2788 85.5505 34.1935 85.2633 34.0247C84.9762 33.8559 84.7569 33.6449 84.6065 33.3917V36.3026H83.8726V29.7882H84.6065V30.6028C84.7505 30.3487 84.967 30.1377 85.2551 29.968ZM87.4036 31.1092C87.2688 30.8615 87.088 30.6735 86.8596 30.545C86.6312 30.4157 86.3798 30.3515 86.1055 30.3515C85.8367 30.3515 85.5881 30.4175 85.3597 30.5487C85.1312 30.6808 84.9487 30.8716 84.8111 31.1211C84.6744 31.3716 84.6056 31.6606 84.6056 31.9881C84.6056 32.3211 84.6744 32.6128 84.8111 32.8633C84.9477 33.1128 85.1303 33.3036 85.3597 33.4357C85.5881 33.5678 85.8367 33.633 86.1055 33.633C86.3798 33.633 86.6312 33.5669 86.8596 33.4357C87.088 33.3036 87.2697 33.1128 87.4036 32.8633C87.5375 32.6128 87.6054 32.3193 87.6054 31.9807C87.6054 31.6468 87.5375 31.356 87.4036 31.1092Z" fill="white"/>
<path d="M57.7024 11.3038C57.2574 10.369 56.6143 9.64518 55.7713 9.13144C54.9282 8.61862 53.9475 8.36083 52.8283 8.36083C51.709 8.36083 50.7017 8.6177 49.8045 9.13144C48.9082 9.64518 48.2028 10.3809 47.689 11.3387C47.1753 12.2965 46.9184 13.4047 46.9184 14.6606C46.9184 15.9174 47.1753 17.021 47.689 17.9714C48.2028 18.9219 48.9073 19.6539 49.8045 20.1668C50.7017 20.6805 51.709 20.9374 52.8283 20.9374C54.3915 20.9374 55.6795 20.4704 56.6905 19.5347C57.7024 18.5999 58.2923 17.3357 58.4611 15.7413H52.0696V14.0395H60.6922V15.6486C60.5692 16.9669 60.1555 18.1742 59.45 19.2696C58.7445 20.3658 57.818 21.2319 56.6685 21.8676C55.519 22.5034 54.2392 22.8217 52.8292 22.8217C51.3421 22.8217 49.9853 22.4731 48.7596 21.7759C47.5331 21.0787 46.5643 20.109 45.8515 18.8677C45.1387 17.6265 44.7827 16.2238 44.7827 14.6606C44.7827 13.0973 45.1396 11.691 45.8515 10.4415C46.5643 9.19199 47.534 8.21955 48.7596 7.52142C49.9862 6.8242 51.3421 6.47559 52.8292 6.47559C54.5309 6.47559 56.0364 6.89759 57.3473 7.73976C58.6574 8.58284 59.6124 9.77086 60.2096 11.3038H57.7024Z" fill="white"/>
<path d="M65.5423 20.9829H71.1522V22.6846H63.4497V6.65869H65.5423V20.9829Z" fill="white"/>
<path d="M84.6034 6.65869L79.3844 16.6372V22.6837H77.2918V16.6372L72.0498 6.65869H74.3717L78.3266 14.7749L82.2815 6.65869H84.6034Z" fill="white"/>
<path d="M87.0866 10.441C87.7911 9.19149 88.7535 8.21446 89.9718 7.50991C91.1901 6.80535 92.5423 6.45215 94.0294 6.45215C95.777 6.45215 97.3018 6.87415 98.6054 7.71632C99.9081 8.5594 100.858 9.75568 101.457 11.3033H98.9503C98.5054 10.3382 97.8659 9.59422 97.0302 9.07314C96.1945 8.55206 95.1945 8.29152 94.0294 8.29152C92.9102 8.29152 91.9066 8.55206 91.0176 9.07314C90.1286 9.59422 89.4314 10.3346 88.925 11.2923C88.4195 12.2501 88.1663 13.373 88.1663 14.6601C88.1663 15.9325 88.4195 17.048 88.925 18.0058C89.4305 18.9636 90.1277 19.7039 91.0176 20.2241C91.9066 20.7451 92.9102 21.0057 94.0294 21.0057C95.1945 21.0057 96.1945 20.7488 97.0302 20.2351C97.865 19.7222 98.5054 18.9819 98.9503 18.0168H101.457C100.858 19.5498 99.9081 20.7332 98.6054 21.569C97.3027 22.4047 95.777 22.8221 94.0294 22.8221C92.5423 22.8221 91.1901 22.4735 89.9718 21.7763C88.7535 21.0791 87.7911 20.1094 87.0866 18.8682C86.3811 17.6269 86.0288 16.2242 86.0288 14.661C86.0279 13.0959 86.3811 11.6905 87.0866 10.441Z" fill="white"/>
<path d="M106.652 6.65869V22.6837H104.559V6.65869H106.652Z" fill="white"/>
<path d="M122.814 22.684H120.722L112.306 9.92393V22.684H110.214V6.63599H112.306L120.722 19.3731V6.63599H122.814V22.684Z" fill="white"/>
<path d="M128.47 8.36069V13.7173H134.31V15.442H128.47V20.9602H135V22.6849H126.378V6.63599H135V8.36069H128.47Z" fill="white"/>
<path d="M1.4137 12.4004C0.884368 12.905 0.412827 13.4554 0 14.0499C1.68158 6.38411 8.48773 0.63022 16.6645 0.587102C17.2562 0.58435 17.8415 0.61187 18.4194 0.665997C18.4194 0.665997 18.5681 1.78522 18.069 2.92921C17.5608 4.09338 16.447 5.27866 11.361 7.03822C7.91711 8.22899 4.11268 9.83627 1.4137 12.4004Z" fill="#63AF43"/>
<path d="M34.1923 24.0188C32.1391 31.1451 25.588 36.3724 17.7966 36.4128C16.9774 36.4183 16.1746 36.3642 15.3848 36.2577C15.3848 36.2577 15.4013 34.9395 15.9765 33.9386C16.3453 33.2982 16.8553 32.4414 19.6607 31.1414C19.6635 31.1387 19.669 31.1359 19.6745 31.1359C20.6405 30.7396 21.7524 30.3195 23.0193 29.858C26.8852 28.4553 30.8805 27.0012 33.7666 24.4188C33.9124 24.2903 34.0537 24.1573 34.1923 24.0188Z" fill="#63AF43"/>
<path d="M16.7479 16.8157C8.01711 23.2182 5.10164 27.8106 8.76754 34.2572C8.30426 34.0241 7.85382 33.7737 7.41439 33.5067C6.75753 33.1049 6.13003 32.6691 5.53281 32.1949C5.52088 32.1866 5.50896 32.1756 5.49978 32.1664C-0.374287 26.9859 -1.46048 19.3385 3.05126 15.301C9.48311 9.5444 24.3871 9.52146 22.9688 1.53738C22.9624 1.49243 22.9541 1.45023 22.9449 1.40527C22.9807 1.45573 23.0165 1.50619 23.0468 1.5594C26.9668 9.00956 20.8808 13.7855 16.7479 16.8157Z" fill="#C5D51A"/>
<path d="M31.3207 21.6373C24.9567 27.3316 10.2977 27.4151 11.3637 35.1551C11.3802 35.2799 11.4013 35.4074 11.4288 35.5349C11.3206 35.3881 11.2096 35.2423 11.1362 35.079C7.44185 26.9812 14.1526 23.0565 21.2165 17.9889C27.7841 13.2799 29.7831 7.99569 24.9898 2.14639C24.965 2.11611 24.9301 2.10052 24.8999 2.073C24.9274 2.08951 24.954 2.10327 24.9815 2.11611C25.6705 2.47665 26.3246 2.86471 26.9374 3.28029C34.4683 8.36173 36.2911 17.1889 31.3207 21.6373Z" fill="#FFBF0D"/>
</svg>
