<svg viewBox="0 0 25 24" fill="none" xmlns="http://www.w3.org/2000/svg">
<path d="M4.24422 8.82594C3.96556 9.09156 3.71733 9.38133 3.5 9.69428C4.38524 5.65877 7.96823 2.62973 12.2727 2.60703C12.5842 2.60558 12.8924 2.62007 13.1966 2.64857C13.1966 2.64857 13.2748 3.23776 13.0121 3.84C12.7446 4.45286 12.1583 5.07682 9.48081 6.00312C7.66783 6.62998 5.66505 7.4761 4.24422 8.82594Z" fill="white"/>
<path d="M21.4999 14.9424C20.4191 18.6939 16.9703 21.4457 12.8687 21.467C12.4374 21.4699 12.0148 21.4414 11.599 21.3854C11.599 21.3854 11.6077 20.6914 11.9105 20.1645C12.1046 19.8274 12.3732 19.3763 13.85 18.692C13.8515 18.6905 13.8544 18.6891 13.8573 18.6891C14.3658 18.4804 14.9511 18.2593 15.6181 18.0163C17.6532 17.2779 19.7565 16.5124 21.2758 15.1529C21.3526 15.0853 21.427 15.0153 21.4999 14.9424Z" fill="white"/>
<path d="M12.3169 11.1506C7.7207 14.5211 6.1859 16.9387 8.11575 20.3324C7.87187 20.2097 7.63474 20.0779 7.40341 19.9374C7.05762 19.7258 6.72728 19.4964 6.41288 19.2468C6.4066 19.2424 6.40033 19.2366 6.3955 19.2318C3.30319 16.5046 2.73138 12.4787 5.10651 10.3533C8.49245 7.32279 16.3384 7.31072 15.5918 3.10763C15.5884 3.08397 15.584 3.06175 15.5792 3.03809C15.598 3.06465 15.6169 3.09121 15.6328 3.11922C17.6965 7.04124 14.4926 9.55546 12.3169 11.1506Z" fill="white"/>
<path d="M19.9881 13.6885C16.6379 16.6861 8.92089 16.7301 9.48207 20.8047C9.49077 20.8704 9.50187 20.9375 9.51636 21.0046C9.45937 20.9274 9.40094 20.8506 9.3623 20.7646C7.41748 16.5016 10.9502 14.4356 14.6689 11.7678C18.1263 9.28884 19.1787 6.50706 16.6553 3.4278C16.6422 3.41186 16.6239 3.40365 16.608 3.38916C16.6224 3.39785 16.6364 3.4051 16.6509 3.41186C17.0136 3.60166 17.358 3.80594 17.6806 4.02472C21.6451 6.69976 22.6047 11.3467 19.9881 13.6885Z" fill="white"/>
</svg>
