<svg viewBox="0 0 32 33" fill="none" xmlns="http://www.w3.org/2000/svg">
<path d="M4.9923 12.2686C4.62075 12.6227 4.28977 13.0091 4 13.4264C5.18032 8.04568 9.95763 4.00696 15.697 3.97669C16.1123 3.97476 16.5231 3.99408 16.9288 4.03207C16.9288 4.03207 17.0331 4.81767 16.6828 5.62065C16.3261 6.43779 15.5444 7.26975 11.9744 8.50481C9.55711 9.34063 6.88673 10.4688 4.9923 12.2686Z" fill="#63AF43"/>
<path d="M27.9999 20.4238C26.5588 25.4259 21.9605 29.095 16.4916 29.1233C15.9166 29.1272 15.3531 29.0892 14.7987 29.0145C14.7987 29.0145 14.8103 28.0892 15.214 27.3866C15.4729 26.9372 15.8309 26.3357 17.8001 25.4233C17.802 25.4214 17.8059 25.4194 17.8097 25.4194C18.4878 25.1413 19.2682 24.8463 20.1575 24.5224C22.871 23.5379 25.6753 22.5172 27.7011 20.7046C27.8035 20.6144 27.9027 20.5211 27.9999 20.4238Z" fill="#63AF43"/>
<path d="M15.7558 15.3685C9.62752 19.8625 7.58112 23.086 10.1543 27.6109C9.82907 27.4473 9.5129 27.2715 9.20446 27.0841C8.74341 26.8021 8.30296 26.4962 7.88376 26.1633C7.87539 26.1575 7.86702 26.1498 7.86058 26.1433C3.7375 22.5071 2.97509 17.1393 6.14193 14.3054C10.6565 10.2647 21.1178 10.2486 20.1223 4.64448C20.1178 4.61293 20.112 4.58331 20.1055 4.55176C20.1307 4.58717 20.1558 4.62259 20.177 4.65994C22.9285 9.88929 18.6567 13.2416 15.7558 15.3685Z" fill="#C5D51A"/>
<path d="M25.9842 18.752C21.5173 22.7488 11.2279 22.8074 11.9762 28.2403C11.9878 28.3278 12.0026 28.4173 12.0219 28.5068C11.9459 28.4038 11.868 28.3014 11.8165 28.1868C9.22338 22.5028 13.9337 19.7481 18.892 16.1911C23.5019 12.8858 24.905 9.17674 21.5405 5.07104C21.5231 5.0498 21.4986 5.03885 21.4774 5.01953C21.4967 5.03112 21.5153 5.04078 21.5347 5.04979C22.0183 5.30286 22.4774 5.57524 22.9075 5.86694C28.1935 9.43366 29.473 15.6295 25.9842 18.752Z" fill="#FFBF0D"/>
</svg>
