<svg width="32" height="32" viewBox="0 0 32 32" fill="none" xmlns="http://www.w3.org/2000/svg">
<path d="M4.9923 11.7681C4.62075 12.1222 4.28977 12.5086 4 12.9259C5.18032 7.5452 9.95763 3.50647 15.697 3.47621C16.1123 3.47427 16.5231 3.49359 16.9288 3.53158C16.9288 3.53158 17.0331 4.31718 16.6828 5.12016C16.3261 5.93731 15.5444 6.76926 11.9744 8.00432C9.55711 8.84014 6.88673 9.9683 4.9923 11.7681Z" fill="#DEF9D5"/>
<path d="M27.9999 19.9238C26.5588 24.9259 21.9605 28.595 16.4916 28.6233C15.9166 28.6272 15.3531 28.5892 14.7987 28.5145C14.7987 28.5145 14.8103 27.5892 15.214 26.8866C15.4729 26.4372 15.8309 25.8357 17.8001 24.9233C17.802 24.9214 17.8059 24.9194 17.8097 24.9194C18.4878 24.6413 19.2682 24.3463 20.1575 24.0224C22.871 23.0379 25.6753 22.0172 27.7011 20.2046C27.8035 20.1144 27.9027 20.0211 27.9999 19.9238Z" fill="#DEF9D5"/>
<path d="M15.7558 14.8675C9.62752 19.3615 7.58112 22.585 10.1543 27.1099C9.82907 26.9463 9.5129 26.7705 9.20446 26.5831C8.74341 26.3011 8.30296 25.9952 7.88376 25.6623C7.87539 25.6565 7.86702 25.6488 7.86058 25.6424C3.7375 22.0061 2.97509 16.6383 6.14193 13.8044C10.6565 9.76372 21.1178 9.74762 20.1223 4.14351C20.1178 4.11195 20.112 4.08233 20.1055 4.05078C20.1307 4.0862 20.1558 4.12162 20.177 4.15896C22.9285 9.38831 18.6567 12.7406 15.7558 14.8675Z" fill="#DEF9D5"/>
<path d="M25.9842 18.2515C21.5173 22.2483 11.2279 22.3069 11.9762 27.7398C11.9878 27.8273 12.0026 27.9168 12.0219 28.0064C11.9459 27.9033 11.868 27.8009 11.8165 27.6863C9.22338 22.0024 13.9337 19.2476 18.892 15.6906C23.5019 12.3853 24.905 8.67625 21.5405 4.57056C21.5231 4.54931 21.4986 4.53836 21.4774 4.51904C21.4967 4.53063 21.5153 4.54029 21.5347 4.54931C22.0183 4.80237 22.4774 5.07475 22.9075 5.36645C28.1935 8.93318 29.473 15.1291 25.9842 18.2515Z" fill="#DEF9D5"/>
</svg>
