<svg width="32" height="32" viewBox="0 0 32 32" fill="none" xmlns="http://www.w3.org/2000/svg">
<path d="M3.07704 10.6969C2.76404 8.22388 4.44404 4.83388 6.42204 3.27887C7.00804 2.81887 8.98204 3.34987 9.49404 3.07587C10.704 2.42787 12.684 1.57587 13.872 2.26487C14.608 2.69187 14.194 3.71387 14.924 4.15287C16.327 4.99788 19.984 3.61987 21.411 4.42287C22.675 5.13388 23.416 10.8779 24.616 11.6909C25.285 12.1439 28.466 10.5329 28.89 11.5229C29.698 13.4079 24.2 16.5259 23.629 18.1529C23.183 19.4229 24.986 20.7269 23.909 21.5349C22.294 22.7469 22.883 24.5819 22.395 24.9339C20.851 26.0469 21.449 26.7059 20.398 28.2939C19.231 30.0569 17.392 30.0439 16.001 29.9969C14.656 29.9519 13.066 26.1429 12.838 24.8159C12.605 23.4629 14.038 21.6389 13.848 20.3059C13.658 18.9729 12.411 19.4289 11.694 18.0849C10.976 16.7389 11.651 14.9219 10.843 13.8449C10.315 13.1409 6.32304 14.2729 5.65004 13.6929C4.67104 12.8509 3.23604 11.9509 3.07704 10.6969Z" fill="#DEF9D5"/>
<path d="M27.847 19.3861C28.043 19.0671 28.496 19.0881 28.625 19.4401C29.324 21.3411 29.02 25.7091 27.703 26.6151C26.831 27.2151 24.33 27.1641 24.717 26.1121C25.196 24.8101 25.702 24.6471 25.859 23.9381C25.982 23.3811 25.35 21.9431 25.748 21.5641C26.502 20.8511 27.056 20.6721 27.847 19.3861Z" fill="#DEF9D5"/>
</svg>
