<svg viewBox="0 0 32 32" fill="none" xmlns="http://www.w3.org/2000/svg">
<path fill-rule="evenodd" clip-rule="evenodd" d="M27 16C27 22.0751 22.0751 27 16 27C9.92487 27 5 22.0751 5 16C5 9.92487 9.92487 5 16 5C22.0751 5 27 9.92487 27 16ZM9.3 16C9.3 12.2997 12.2997 9.3 16 9.3C16.5523 9.3 17 8.85228 17 8.3C17 7.74772 16.5523 7.3 16 7.3C11.1951 7.3 7.3 11.1951 7.3 16C7.3 16.5523 7.74772 17 8.3 17C8.85228 17 9.3 16.5523 9.3 16ZM21.657 11.7571C22.0475 11.3666 22.0475 10.7334 21.657 10.3429C21.2665 9.95237 20.6333 9.95237 20.2428 10.3429L16.599 13.9867C16.4092 13.9303 16.2081 13.9 16 13.9C14.8402 13.9 13.9 14.8402 13.9 16C13.9 17.1598 14.8402 18.1 16 18.1C17.1598 18.1 18.1 17.1598 18.1 16C18.1 15.7918 18.0697 15.5907 18.0133 15.4008L21.657 11.7571Z" fill="#DEF9D5"/>
</svg>
