<svg width="48" height="48" viewBox="0 0 48 48" fill="none" xmlns="http://www.w3.org/2000/svg">
<mask id="mask0_16540_2914" style="mask-type:luminance" maskUnits="userSpaceOnUse" x="2" y="2" width="44" height="45">
<path d="M2 2.83362H45.6664V46.5H2V2.83362Z" fill="white"/>
</mask>
<g mask="url(#mask0_16540_2914)">
<path d="M9.33464 32.0014L3.36462 34.9864L23.8332 45.2207L44.3019 34.9864L38.3318 32.0014" stroke="#BDC4BF" stroke-width="2" stroke-miterlimit="10" stroke-linecap="round" stroke-linejoin="round"/>
<path d="M9.33464 26.0317L3.36462 29.0167L23.8332 39.251L44.3019 29.0167L38.3318 26.0317" stroke="#BDC4BF" stroke-width="2" stroke-miterlimit="10" stroke-linecap="round" stroke-linejoin="round"/>
<path d="M13.9751 17.7408L3.36462 23.046L23.8332 33.2803L44.3019 23.046L33.6914 17.7408" stroke="#BDC4BF" stroke-width="2" stroke-miterlimit="10" stroke-linecap="round" stroke-linejoin="round"/>
<path d="M23.8333 19.1033C21.7588 19.1033 20.0773 17.4217 20.0773 15.3474C20.0773 13.2729 21.7588 11.5914 23.8333 11.5914C25.9077 11.5914 27.5892 13.2729 27.5892 15.3474C27.5892 17.4217 25.9077 19.1033 23.8333 19.1033ZM33.2232 15.3474C33.2232 14.6471 33.1406 13.967 32.9952 13.3105L35 12.1529L32.183 7.27392L30.1725 8.43461C29.1717 7.51646 27.978 6.80574 26.6502 6.38874V4.07948H21.0163V6.38874C19.6886 6.80574 18.4948 7.51646 17.494 8.43461L15.4835 7.27392L12.6665 12.1529L14.6713 13.3105C14.5259 13.967 14.4434 14.6471 14.4434 15.3474C14.4434 16.0477 14.5259 16.7277 14.6713 17.3842L12.6665 18.5418L15.4835 23.4208L17.494 22.26C18.4948 23.1782 19.6886 23.889 21.0163 24.306V26.6152H26.6502V24.306C27.9779 23.889 29.1717 23.1782 30.1725 22.26L32.183 23.4208L35 18.5418L32.9952 17.3842C33.1406 16.7277 33.2232 16.0477 33.2232 15.3474Z" stroke="#63AF43" stroke-width="2" stroke-miterlimit="10" stroke-linecap="round" stroke-linejoin="round"/>
</g>
</svg>
